<svg xmlns="http://www.w3.org/2000/svg" viewBox="0 0 256 256" role="img" aria-labelledby="title desc">
  <title id="title">biwa sync icon</title>
  <desc id="desc">An orange biwa fruit with two green leaves, divided by a flowing sync-shaped negative-space path.</desc>
  <path d="M120 72 C91 73 63 60 55 29 C84 24 108 38 120 59 Z" fill="#86B349"/>
  <path d="M136 72 C165 73 193 60 201 29 C172 24 148 38 136 59 Z" fill="#86B349"/>
  <path fill="#E9912C" fill-rule="evenodd" d="
    M128 72
    C79 72 47 105 47 155
    C47 205 80 232 128 232
    C176 232 209 205 209 155
    C209 105 177 72 128 72 Z

    M120 72
    L120 124
    C120 138 137 141 137 156
    C137 171 120 176 120 190
    L120 232
    L136 232
    L136 192
    C136 179 153 173 153 156
    C153 139 136 133 136 122
    L136 72 Z"/>
</svg>
