<svg xmlns="http://www.w3.org/2000/svg" width="256" height="256"><path fill="#86b349" stroke="None" d="M137 93c5.62-7.02 2.3-21.29-3.7-26.3-5.99-5.02-12.16-15.29-20.22-15.62-8.07-.33-14.5 10.44-20.83 15.17C85.93 70.98 83.11 86.37 89 93c10.13-5.36 19.28-14.99 23-26 6.49 9.35 13.29 21.78 25 26zM83 98c-.55-9.79-15.83-15.66-23.98-12.98C50.88 87.71 37.32 88.38 35 98c-2.32 9.62 2.83 21.5 7.23 29.77s20.83 13.08 17.75 1.25C56.89 117.2 55.52 113.01 50 103c11.66.94 22.58-1.29 33-5zM165 137c8.16 1.06 18.85-6.42 21.08-13.92 2.22-7.5 9.01-21.87 3.62-28.78-5.4-6.9-17.77-7.4-25.7-9.3-7.93-1.9-19.9 3.36-22 12 10.36 5.42 21.96 6.73 34 6-6.4 10.26-11.41 21.51-11 34z" transform="matrix(-1.21781 0 0 1.0914 265.493 -23.74)"/><path fill="#e9912c" stroke="None" d="M117 91c-17.84-3.7-32.36 17.41-41.08 30.92-8.71 13.52-9.14 42.11 6.85 53.31 15.99 11.2 38.87 10.93 56 2.54 17.13-8.39 21.03-36.31 13-50.54C143.74 113 133.56 94.43 117 91m-21 43c4.48 1.67 2.65 11.24-3.25 9.2-5.89-2.05-3.88-11.86 3.25-9.2m38 0c5.71 1.79 1.83 11.74-4 9s-1.66-10.77 4-9m-13 13c.11 9.19-16.1 9.19-16 0 4.95 4.79 10.87 4.38 16 0z" transform="matrix(-1.21781 0 0 1.0914 265.493 -23.74)"/><path fill="#332418" stroke="None" d="M96 134c-7.13-2.66-9.14 7.15-3.25 9.2 5.9 2.04 7.73-7.53 3.25-9.2zM134 134c-5.66-1.77-9.83 6.26-4 9s9.71-7.21 4-9z" transform="matrix(-1.21781 0 0 1.0914 265.493 -23.74)"/><path fill="#86b349" stroke="None" d="M61 143c-8.31-2.15-19.41 5.97-21.69 13.31-2.29 7.33-8.56 22.88-3 29.39 5.55 6.5 17.96 7.42 25.69 9.3 7.73 1.88 20.22-4.48 21-13-10.65-4.06-22.44-7.31-34-5 7.45-9.84 10.77-21.9 12-34zM142 182c1.91 8.39 13.96 14.95 22 13 8.04-1.96 19.72-2.95 25.25-9.75 5.52-6.81-.69-20.96-2.95-28.55-2.25-7.6-12.73-15.58-21.3-13.7-.35 12.53 5.48 23.47 11 34-11.5-2.92-23.33 1.65-34 5z" transform="matrix(-1.21781 0 0 1.0914 265.493 -23.74)"/><path fill="#332418" stroke="None" d="M121 147c-5.13 4.38-11.05 4.79-16 0-.1 9.19 16.11 9.19 16 0z" transform="matrix(-1.21781 0 0 1.0914 265.493 -23.74)"/><path fill="#86b349" stroke="None" d="M114 212c-7.43-8.05-13.68-20.65-25-26-6.18 8.07-2.69 22.62 4.25 28.75 6.93 6.13 14.29 14.74 23.06 11.56 8.76-3.19 14.11-10.58 20.38-17.62 6.28-7.03 2.57-26.5-6.44-18.44-9.01 8.06-11.85 11.8-16.25 21.75z" transform="matrix(-1.21781 0 0 1.0914 265.493 -23.74)"/></svg>